<svg width="305" height="240" viewBox="0 0 305 240" fill="none" xmlns="http://www.w3.org/2000/svg">
<path d="M261.886 221.237C260.738 221.237 259.763 221.029 258.961 220.615C258.159 220.2 257.44 219.592 256.804 218.79L258.422 217.173C258.823 217.753 259.3 218.209 259.853 218.541C260.406 218.859 261.112 219.018 261.969 219.018C262.771 219.018 263.407 218.852 263.877 218.52C264.361 218.189 264.603 217.733 264.603 217.152C264.603 216.668 264.478 216.274 264.23 215.97C263.981 215.666 263.649 215.417 263.234 215.224C262.833 215.016 262.384 214.837 261.886 214.685C261.402 214.519 260.911 214.339 260.413 214.145C259.929 213.938 259.48 213.682 259.065 213.378C258.664 213.074 258.339 212.68 258.09 212.196C257.841 211.713 257.717 211.097 257.717 210.351C257.717 209.494 257.924 208.768 258.339 208.174C258.768 207.566 259.342 207.102 260.061 206.785C260.78 206.467 261.582 206.308 262.467 206.308C263.421 206.308 264.271 206.494 265.018 206.867C265.778 207.241 266.393 207.718 266.864 208.298L265.246 209.915C264.831 209.445 264.395 209.1 263.939 208.879C263.497 208.644 262.985 208.526 262.404 208.526C261.685 208.526 261.118 208.671 260.704 208.962C260.303 209.252 260.102 209.66 260.102 210.185C260.102 210.627 260.227 210.987 260.476 211.263C260.724 211.526 261.049 211.754 261.45 211.948C261.865 212.127 262.314 212.3 262.798 212.466C263.296 212.632 263.787 212.818 264.271 213.026C264.769 213.233 265.218 213.503 265.619 213.834C266.034 214.152 266.366 214.567 266.615 215.078C266.864 215.59 266.988 216.233 266.988 217.007C266.988 218.306 266.525 219.336 265.598 220.096C264.686 220.857 263.448 221.237 261.886 221.237Z" fill="#F9E71E"/>
<path d="M247.407 221.029V206.929H249.792V221.029H247.407ZM242.678 208.692V206.515H254.521V208.692H242.678Z" fill="#F9E71E"/>
<path d="M229.955 221.029V206.515H232.34V221.029H229.955ZM231.594 221.029V218.852H239.724V221.029H231.594ZM231.594 214.663V212.569H239.019V214.663H231.594ZM231.594 208.692V206.515H239.62V208.692H231.594Z" fill="#F9E71E"/>
<path d="M219.161 221.236C218.069 221.236 217.087 220.988 216.216 220.49C215.345 219.992 214.654 219.315 214.142 218.458C213.644 217.587 213.396 216.606 213.396 215.514V206.515H215.781V215.493C215.781 216.198 215.926 216.813 216.216 217.338C216.52 217.85 216.928 218.251 217.44 218.541C217.951 218.817 218.525 218.956 219.161 218.956C219.811 218.956 220.385 218.817 220.883 218.541C221.381 218.251 221.775 217.85 222.065 217.338C222.355 216.813 222.501 216.205 222.501 215.514V206.515H224.886V215.534C224.886 216.626 224.637 217.601 224.139 218.458C223.641 219.315 222.964 219.992 222.107 220.49C221.249 220.988 220.268 221.236 219.161 221.236Z" fill="#F9E71E"/>
<path d="M201.173 221.237C200.136 221.237 199.168 221.043 198.269 220.656C197.37 220.269 196.582 219.737 195.905 219.06C195.227 218.368 194.695 217.574 194.308 216.675C193.934 215.763 193.748 214.788 193.748 213.751C193.748 212.715 193.934 211.747 194.308 210.849C194.695 209.95 195.22 209.162 195.884 208.485C196.562 207.794 197.343 207.261 198.228 206.888C199.127 206.501 200.094 206.308 201.131 206.308C202.168 206.308 203.129 206.501 204.014 206.888C204.913 207.261 205.701 207.794 206.379 208.485C207.056 209.162 207.582 209.957 207.955 210.869C208.342 211.768 208.536 212.735 208.536 213.772C208.536 214.809 208.342 215.783 207.955 216.696C207.582 217.594 207.056 218.382 206.379 219.06C205.715 219.737 204.934 220.269 204.035 220.656C203.15 221.043 202.196 221.237 201.173 221.237ZM207.81 222.025L201.277 215.493L202.811 213.959L209.345 220.49L207.81 222.025ZM201.131 218.956C202.113 218.956 202.97 218.735 203.703 218.292C204.45 217.85 205.031 217.242 205.445 216.468C205.874 215.68 206.088 214.774 206.088 213.751C206.088 212.991 205.964 212.3 205.715 211.678C205.48 211.042 205.141 210.496 204.699 210.04C204.256 209.57 203.731 209.211 203.122 208.962C202.528 208.713 201.864 208.588 201.131 208.588C200.164 208.588 199.306 208.81 198.56 209.252C197.827 209.68 197.246 210.282 196.817 211.056C196.403 211.83 196.195 212.729 196.195 213.751C196.195 214.512 196.313 215.217 196.548 215.866C196.797 216.502 197.135 217.048 197.564 217.504C198.007 217.961 198.532 218.32 199.14 218.583C199.749 218.831 200.412 218.956 201.131 218.956Z" fill="#F9E71E"/>
<path d="M177.533 221.029V206.515H179.192L179.918 209.252V221.029H177.533ZM187.592 221.029L178.902 209.687L179.192 206.515L187.882 217.857L187.592 221.029ZM187.592 221.029L186.866 218.479V206.515H189.251V221.029H187.592Z" fill="#F9E71E"/>
<path d="M159.979 221.029L165.953 206.515H167.612L173.544 221.029H170.972L166.326 209.272H167.197L162.51 221.029H159.979ZM162.925 218.23V216.156H170.619V218.23H162.925Z" fill="#F9E71E"/>
<path d="M147.72 221.029V218.956H151.889C152.622 218.956 153.189 218.728 153.59 218.271C153.991 217.815 154.191 217.29 154.191 216.695C154.191 216.295 154.101 215.921 153.922 215.576C153.742 215.23 153.479 214.954 153.134 214.746C152.788 214.539 152.373 214.435 151.889 214.435H147.72V212.362H151.537C152.159 212.362 152.657 212.203 153.03 211.885C153.403 211.567 153.59 211.097 153.59 210.475C153.59 209.853 153.403 209.383 153.03 209.065C152.657 208.747 152.159 208.588 151.537 208.588H147.72V206.515H151.599C152.58 206.515 153.396 206.694 154.046 207.054C154.696 207.413 155.18 207.876 155.498 208.443C155.816 209.01 155.975 209.618 155.975 210.268C155.975 211.028 155.761 211.698 155.332 212.279C154.917 212.86 154.302 213.33 153.486 213.689L153.673 212.942C154.585 213.316 155.297 213.841 155.809 214.518C156.321 215.196 156.576 215.99 156.576 216.903C156.576 217.649 156.39 218.334 156.016 218.956C155.657 219.578 155.118 220.082 154.399 220.469C153.694 220.842 152.822 221.029 151.785 221.029H147.72ZM146.082 221.029V206.515H148.467V221.029H146.082Z" fill="#F9E71E"/>
<path d="M134.051 221.03L127.166 213.503C126.654 212.936 126.267 212.397 126.004 211.886C125.755 211.374 125.631 210.807 125.631 210.185C125.631 209.453 125.811 208.796 126.17 208.215C126.53 207.621 127.02 207.151 127.643 206.805C128.265 206.46 128.977 206.287 129.779 206.287C130.387 206.287 130.94 206.391 131.438 206.598C131.936 206.792 132.371 207.054 132.745 207.386C133.132 207.704 133.45 208.056 133.699 208.444L132.06 209.895C131.756 209.48 131.424 209.142 131.065 208.879C130.719 208.616 130.29 208.485 129.779 208.485C129.253 208.485 128.811 208.644 128.451 208.962C128.092 209.266 127.912 209.653 127.912 210.123C127.912 210.593 128.009 210.98 128.203 211.284C128.396 211.588 128.666 211.941 129.011 212.342L136.789 221.03H134.051ZM129.094 221.237C128.099 221.237 127.228 221.05 126.481 220.677C125.748 220.29 125.174 219.765 124.76 219.101C124.359 218.424 124.158 217.657 124.158 216.8C124.158 215.929 124.393 215.148 124.863 214.457C125.347 213.765 126.053 213.206 126.979 212.777L128.037 214.166C127.525 214.443 127.131 214.788 126.854 215.203C126.578 215.604 126.44 216.115 126.44 216.737C126.44 217.235 126.55 217.657 126.772 218.002C127.007 218.348 127.331 218.617 127.746 218.811C128.161 218.991 128.638 219.081 129.177 219.081C129.883 219.081 130.463 218.935 130.92 218.645C131.39 218.355 131.742 218.009 131.977 217.608L133.471 219.35C133.18 219.709 132.807 220.034 132.351 220.325C131.894 220.601 131.39 220.822 130.837 220.988C130.284 221.154 129.703 221.237 129.094 221.237Z" fill="#F9E71E"/>
<path d="M108.917 221.237C107.769 221.237 106.794 221.029 105.992 220.615C105.19 220.2 104.471 219.592 103.835 218.79L105.453 217.173C105.854 217.753 106.331 218.209 106.884 218.541C107.437 218.859 108.143 219.018 109 219.018C109.802 219.018 110.438 218.852 110.908 218.52C111.392 218.189 111.634 217.733 111.634 217.152C111.634 216.668 111.509 216.274 111.261 215.97C111.012 215.666 110.68 215.417 110.265 215.224C109.864 215.016 109.415 214.837 108.917 214.685C108.433 214.519 107.942 214.339 107.444 214.145C106.96 213.938 106.511 213.682 106.096 213.378C105.695 213.074 105.37 212.68 105.121 212.196C104.872 211.713 104.748 211.097 104.748 210.351C104.748 209.494 104.955 208.768 105.37 208.174C105.799 207.566 106.373 207.102 107.092 206.785C107.811 206.467 108.613 206.308 109.498 206.308C110.452 206.308 111.302 206.494 112.049 206.867C112.809 207.241 113.424 207.718 113.895 208.298L112.277 209.915C111.862 209.445 111.426 209.1 110.97 208.879C110.528 208.644 110.016 208.526 109.435 208.526C108.716 208.526 108.149 208.671 107.735 208.962C107.334 209.252 107.133 209.66 107.133 210.185C107.133 210.627 107.258 210.987 107.507 211.263C107.755 211.526 108.08 211.754 108.481 211.948C108.896 212.127 109.345 212.3 109.829 212.466C110.327 212.632 110.818 212.818 111.302 213.026C111.8 213.233 112.249 213.503 112.65 213.834C113.065 214.152 113.397 214.567 113.646 215.078C113.895 215.59 114.019 216.233 114.019 217.007C114.019 218.306 113.556 219.336 112.629 220.096C111.717 220.857 110.479 221.237 108.917 221.237Z" fill="#F9E71E"/>
<path d="M88.2151 221.029V206.515H89.8743L90.6002 209.252V221.029H88.2151ZM98.2742 221.029L89.584 209.687L89.8743 206.515L98.5646 217.857L98.2742 221.029ZM98.2742 221.029L97.5483 218.479V206.515H99.9335V221.029H98.2742Z" fill="#F9E71E"/>
<path d="M69.4986 221.029L64.7283 206.515H67.0719L70.66 217.691H70.0378L73.543 206.515H75.2022L78.7073 217.691H78.0851L81.6732 206.515H84.0169L79.2466 221.029H77.5874L74.0615 209.874H74.6837L71.1578 221.029H69.4986Z" fill="#F9E71E"/>
<path d="M49.7917 221.029L55.765 206.515H57.4242L63.356 221.029H60.7842L56.1383 209.272H57.0094L52.3221 221.029H49.7917ZM52.7369 218.23V216.156H60.4316V218.23H52.7369Z" fill="#F9E71E"/>
<path d="M37.8792 221.029V206.515H40.2643V221.029H37.8792ZM39.5176 221.029V218.852H47.1087V221.029H39.5176Z" fill="#F9E71E"/>
<path d="M149.483 0.0143192C152.37 -0.0548644 155.151 0.143731 158.026 0.245268C159.899 0.311274 161.776 0.212339 163.649 0.298999C166.175 0.415845 168.749 0.538761 171.264 0.78372C172.58 0.911977 173.883 1.1565 175.202 1.28562C178.272 1.58648 181.373 1.77395 184.428 2.18949C185.881 2.38722 187.311 2.73631 188.758 2.96813C193.686 3.75659 198.59 4.57379 203.455 5.70168C225.71 10.8605 247.891 20.0625 266.03 34.1308C268.875 36.3369 271.602 38.8606 274.249 41.2993C275.965 42.8799 277.5 44.6665 279.048 46.4104C287.567 56.01 294.017 67.4457 296.268 80.2094C296.811 83.286 296.978 86.5805 297.102 89.7028C297.196 92.06 297.03 94.4605 296.838 96.8104C295.554 112.5 288.559 125.235 278.033 136.622C255.017 161.522 217.739 174.973 184.791 179.683C182.417 180.023 180.01 180.209 177.626 180.452C173.431 180.876 169.282 181.329 165.072 181.599C163.278 181.713 161.475 181.638 159.68 181.685C158.176 181.724 156.689 181.893 155.187 181.952C115.892 182.393 73.5984 172.992 41.3218 149.761C24.9772 137.997 11.1502 121.046 8.03724 100.634C5.53649 83.642 10.261 66.038 20.539 52.3823C43.1435 22.3491 83.7734 7.31283 119.869 2.21534C126.519 1.33719 133.199 0.707455 139.896 0.327451C142.672 0.184606 146.678 0.460044 149.232 0.0551967L149.483 0.0143192Z" fill="#2EA144"/>
<path d="M146.602 3.05745C146.827 3.04792 147.051 3.03983 147.276 3.03319C164.969 2.49936 182.247 4.09188 199.543 7.78201C239.737 16.3577 292.361 41.8903 294.707 88.8938C295.912 113.043 280.847 133.7 262.043 147.083C232.178 168.845 195.07 178.086 158.596 178.908C148.461 179.166 138.32 178.801 128.229 177.813C94.846 174.271 57.6847 161.857 32.7472 138.697C20.0388 126.894 11.2402 111.802 10.5921 94.1569C9.6498 76.1535 17.1081 59.3388 29.6359 46.3664C52.0553 23.1513 85.1816 11.0081 116.451 5.72355C126.518 4.02227 136.533 3.41189 146.602 3.05745Z" fill="#F9E71E"/>
<path d="M148.397 5.51958C180.905 4.79683 214.88 11.072 243.89 26.3636C268.188 39.1715 290.34 60.615 291.602 89.7478C292.284 105.487 284.138 122.15 273.156 133.24C243.141 163.545 198.214 175.05 156.722 176.245L156.383 176.253C148.749 176.428 141.606 176.025 134.054 175.4C105.353 173.028 76.7581 165.333 52.2324 149.81C32.105 137.071 14.0875 117.596 13.5914 92.388C13.2644 75.7712 21.0729 59.9401 32.4205 48.0864C61.6534 18.1646 107.777 6.29071 148.397 5.51958Z" fill="#2EA144"/>
<path d="M225.32 72.9316L225.628 72.9653C225.825 73.3842 225.579 76.4898 225.553 77.2131C225.469 80.2612 225.411 83.3099 225.381 86.359C227.022 84.4548 229.799 82.4114 232.367 82.8096C237.297 83.5736 239.112 89.56 238.479 93.8453C238.023 96.9304 236.706 99.4074 234.28 101.235C230.978 103.522 223.953 104.182 222.265 98.9698C221.832 97.6324 222.128 93.5102 222.168 91.933C222.257 88.6269 222.295 85.3201 222.283 82.013C222.286 80.3568 222.311 78.6872 222.236 77.0265C222.13 74.6647 220.184 75.3658 219.207 74.5528V74.2819C219.823 73.9422 224.406 73.1126 225.32 72.9316Z" fill="#F9E71E"/>
<path d="M229.647 85.356C233.09 85.1821 234.922 88.5662 235.123 91.5589C235.373 95.2939 235.169 100.273 230.923 101.551C228.805 101.72 226.188 101.13 225.683 98.678C225.085 95.7836 225.165 90.9884 225.926 88.1185C226.238 86.9473 228.499 85.7155 229.647 85.356Z" fill="#2EA144"/>
<path d="M106.678 86.1146C109.216 83.8696 113.114 81.0206 116.352 83.7358C120.02 86.8116 117.803 95.3098 118.484 99.6153C118.809 101.669 121.532 100.701 121.498 102.085C120.858 102.52 114.467 102.63 113.656 102L113.652 101.679C114.01 101.171 114.539 101.024 115.127 100.758C115.728 98.5639 115.598 88.6817 114.783 86.4397C111.588 83.5606 109.679 85.6547 107.107 87.9885C106.846 90.4077 106.656 98.4628 107.108 100.66C107.883 100.87 108.856 101.119 109.23 101.871C109.038 102.271 109.064 102.152 108.518 102.367C107.523 102.406 102.378 102.677 101.943 102.222L101.968 101.864C102.378 101.427 102.629 101.502 103.295 101.269C104.263 100.252 103.734 90.2806 103.764 88.3524C103.77 87.9697 103.607 87.3878 103.391 87.0522C100.82 83.0579 98.3848 85.7391 95.5789 87.4816C95.4625 90.1246 95.2016 98.2866 95.6573 100.597C96.4111 100.855 97.4821 101.094 97.8763 101.76L97.7674 102.007C96.9392 102.419 90.8749 102.582 90.2981 102.113C90.6003 101.338 92.3687 100.837 92.3576 99.5561C92.3185 95.0585 92.5678 90.4583 92.2959 85.9912C92.2638 85.4622 90.6501 85.4115 90.2075 84.9142C90.1721 84.4185 90.1141 84.6403 90.3872 84.2258C91.6654 83.4499 94.0876 83.1933 95.5704 83.1345L95.627 85.6586C97.2851 84.2109 99.6925 83.09 101.875 82.7666C104.204 82.6488 106.066 83.8062 106.678 86.1146Z" fill="#F9E71E"/>
<path d="M195.832 82.7413C199.242 82.4143 200.369 83.6047 202.045 86.3576C204.016 83.5625 208.2 81.3758 211.396 83.6264C213.873 85.3694 213.553 89.6059 213.497 92.3169L213.393 97.2493C213.376 98.1159 213.34 98.9406 213.429 99.8145C213.582 101.322 216.087 101.27 216.29 102.189C215.771 102.585 209.279 102.684 208.619 101.946L208.694 101.653C209.184 101.179 209.717 101.101 210.386 100.902C210.422 100.451 210.451 99.9993 210.471 99.5458C210.603 96.7019 210.872 90.3858 210.284 87.7254C209.096 82.348 204.758 85.3701 202.282 88.0301C202.11 90.6271 201.946 98.672 202.446 100.882C203.406 101.142 203.911 101.207 204.596 101.915C204.199 102.332 203.803 102.417 203.217 102.397C202.068 102.358 198.287 102.807 197.51 102.098L197.532 101.816C197.933 101.321 198.35 101.244 198.958 101.022C198.976 100.889 198.994 100.756 199.009 100.623C199.362 97.6927 199.23 91.4445 198.985 88.3724C198.845 87.5318 198.363 86.5924 197.847 85.9528C195.565 83.1278 192.735 85.7926 190.783 87.6026C190.615 90.0883 190.48 98.568 190.982 100.563C191.723 100.817 192.88 101.054 193.12 101.837L192.856 102.091C191.852 102.43 186.457 102.56 185.617 102.276C185.443 101.865 185.486 102.086 185.632 101.572C185.912 101.236 186.179 101.211 186.578 101.1C186.835 101.028 187.173 100.932 187.289 100.67C187.767 99.6036 187.855 86.294 187.297 85.3961C186.896 84.7512 185.298 84.4053 184.583 84.1317C186.738 83.3187 188.061 83.1188 190.353 83.0742C190.433 83.7337 190.526 84.3917 190.628 85.0483L190.924 85.1185C191.094 85.036 191.078 85.0616 191.217 84.9124C192.051 84.0119 194.455 83.0989 195.635 82.7917L195.832 82.7413Z" fill="#F9E71E"/>
<path d="M165.61 44.1621C166.243 45.0469 166.904 45.9482 167.517 46.8438C168.687 47.6172 170.277 49.8243 170.876 51.0815C171.023 51.3548 171.101 51.587 171.326 51.766C172.33 50.5466 173.137 49.8997 174.769 49.7599C180.101 49.3031 184.844 52.7149 189.686 54.4276C191.458 55.0544 197.714 55.11 199.099 55.7709L199.055 55.9184C196.471 55.7431 193.149 55.6618 190.716 55.0884C189.539 56.0175 186.119 58.0573 185.644 58.6733L185.447 58.9777C182.648 61.0503 180.743 61.1564 177.381 60.8043C173.669 60.4152 171.128 58.4753 168.222 56.3368C166.68 55.6501 165.685 55.3067 164.018 55.135C161.166 55.2022 160.224 54.9617 158.602 57.6281L158.107 57.3651C158.401 56.9114 158.804 56.3345 158.846 55.804L158.472 55.7019L158.104 55.7939C158.394 53.9492 162.314 53.0484 163.862 52.5884L165.123 51.7592C166.207 49.8398 166.067 46.7116 165.21 44.7101L165.61 44.1621Z" fill="#B6DA30"/>
<path d="M165.61 44.1621C166.243 45.0469 166.904 45.9482 167.517 46.8438C168.687 47.6172 170.277 49.8243 170.876 51.0815C171.023 51.3548 171.101 51.587 171.326 51.766L170.518 52.449L170 52.0849L169.799 52.146C169.443 53.3004 171.368 56.3094 167.909 55.5167C166.355 54.8659 165.281 54.3439 163.604 54.1438C162.815 54.2427 161.839 54.2402 161.212 54.6098L161.109 54.8305C161.772 55.1835 163.028 54.8745 164.018 55.135C161.166 55.2022 160.224 54.9617 158.602 57.6281L158.107 57.3651C158.401 56.9114 158.804 56.3345 158.846 55.804L158.472 55.7019L158.104 55.7939C158.394 53.9492 162.314 53.0484 163.862 52.5884L165.123 51.7592C166.207 49.8398 166.067 46.7116 165.21 44.7101L165.61 44.1621Z" fill="#2EA144"/>
<path d="M163.862 52.5889C163.178 53.2925 162.577 53.1244 161.894 53.7336C162.587 53.4786 164.369 52.7763 164.979 52.6764C164.444 53.1968 164.314 53.2312 163.631 53.5781L163.604 54.1443C162.815 54.2432 161.839 54.2407 161.212 54.6104L161.109 54.831C161.772 55.184 163.028 54.875 164.018 55.1355C161.166 55.2027 160.224 54.9622 158.602 57.6286L158.107 57.3656C158.401 56.9119 158.804 56.335 158.846 55.8045L158.472 55.7024L158.104 55.7944C158.394 53.9497 162.314 53.0489 163.862 52.5889Z" fill="#4CB13C"/>
<path d="M163.862 52.5889C163.178 53.2925 162.577 53.1244 161.894 53.7336C162.587 53.4786 164.369 52.7763 164.979 52.6764C164.444 53.1968 164.314 53.2312 163.631 53.5781C162.167 53.9746 159.498 54.5153 158.472 55.7024L158.104 55.7944C158.394 53.9497 162.314 53.0489 163.862 52.5889Z" fill="#B6DA30"/>
<path d="M165.61 44.1621C166.243 45.0469 166.904 45.9482 167.517 46.8438L167.342 47.0127L167.135 47.0205C166.767 47.6794 167.228 51.1592 164.979 52.6759C164.369 52.7758 162.587 53.4781 161.894 53.7331C162.577 53.1239 163.178 53.292 163.862 52.5884L165.123 51.7592C166.207 49.8398 166.067 46.7116 165.21 44.7101L165.61 44.1621Z" fill="#F9E71E"/>
<path d="M167.517 46.8438C168.687 47.6172 170.277 49.8243 170.876 51.0814L170.547 51.1642C169.544 50.5693 168.142 48.1341 167.343 47.0126L167.517 46.8438Z" fill="#B6DA30"/>
<path d="M174.626 50.4351C179.595 50.1279 179.635 51.1077 183.869 52.7178C183.404 53.1851 182.156 54.4473 182.335 55.0871C183.755 55.6406 183.635 55.6903 184.375 57.0644L184.613 57.023C184.394 55.9023 184.081 55.4211 183.638 54.3895C183.867 53.9211 184.086 53.4192 184.306 52.9433C185.61 53.6491 188.25 54.6288 189.687 55.0782L187.359 56.5957C187.337 56.6125 187.314 56.6292 187.291 56.646C185.096 57.9382 183.727 59.3417 181.218 60.1778C178.794 60.9861 170.045 58.4641 169.536 56.1936C172.3 54.3057 170.704 51.1783 174.626 50.4351Z" fill="#2EA144"/>
<path d="M179.563 54.1472C179.361 53.5316 179.055 53.0668 179.595 52.6289C180.199 52.5954 180.599 52.7839 181.173 52.9761L181.469 53.1897C181.319 53.8254 180.853 53.7767 180.839 54.1447C180.785 55.5802 181.416 57.3056 180.472 58.6295C179.99 58.9087 180.233 58.8648 179.745 58.8603C179.198 57.9666 179.919 55.2145 179.563 54.1472Z" fill="#B6DA30"/>
<path d="M179.563 54.1472C179.361 53.5316 179.055 53.0668 179.595 52.6289C180.199 52.5954 180.599 52.7839 181.173 52.9761C180.626 53.9037 180.508 53.4159 179.563 54.1472Z" fill="#B6DA30"/>
<path d="M76.0302 82.4826C76.9654 82.4268 77.9546 82.4686 78.8713 82.6695C80.1738 82.955 81.4815 83.6212 82.155 84.8227C83.7044 87.587 81.8388 97.8432 83.0269 99.3555C83.4272 99.8653 84.9221 99.9577 85.5395 100.062C85.2158 100.949 84.9833 101.379 84.5423 102.208C84.4485 102.238 84.3541 102.267 84.2592 102.295C79.5393 103.622 79.7944 100.726 78.9629 100.261C77.6446 102.189 74.0355 102.742 71.8453 102.621C70.2367 101.636 69.8465 100.811 69.3265 99.1114C68.5208 92.765 74.6793 90.8368 79.5866 89.1195C79.5279 86.7666 79.6375 86.3148 78.2341 84.4755C78.1214 84.4495 78.0083 84.4251 77.8949 84.4024C73.3183 83.4884 73.0857 85.9699 72.5967 89.7449C69.9447 88.8913 68.646 87.847 70.7743 84.9625C72.004 83.2955 74.027 82.6946 76.0302 82.4826Z" fill="#F9E71E"/>
<path d="M79.2505 90.8252L79.4005 90.9335C79.9074 92.154 79.1847 97.7667 78.881 99.1561C77.5902 100.212 74.9336 101.531 73.4427 100.261C69.6509 95.6984 75.1341 91.7929 79.2505 90.8252Z" fill="#2EA144"/>
<path d="M123.987 50.9923C126.15 49.902 130.825 50.0905 133.212 50.6009C133.432 50.648 134.241 51.3734 134.501 51.5733L134.732 51.3492C134.779 50.7898 134.773 50.3236 135.133 49.8987C136.207 48.631 137.387 47.2982 138.572 46.1348C138.899 46.9371 138.791 49.4547 138.727 50.3736C138.866 51.041 138.947 51.3492 139.177 51.9898C139.784 52.5033 140.547 53.1864 141.166 53.6556L141.37 53.3745L141.534 53.7988L141.659 53.862C143.254 54.9144 146.43 56.1131 147.224 57.011C146.683 57.3425 142.134 55.1445 141.298 54.7873C137.712 55.9336 136.344 57.011 133.275 59.1159C130.602 60.9489 126.229 61.5081 123.264 59.9651C122.963 59.8103 122.666 59.6471 122.375 59.4754C122.207 59.3283 121.941 58.9989 121.784 58.8178C120.284 56.0137 117.817 58.589 114.938 55.7046C113.886 55.6451 107.018 56.0491 106.787 55.9405L106.777 55.7793C108.713 55.6128 110.481 55.0855 112.431 55.0369C113.696 55.0054 114.602 54.8195 115.821 54.5596C118.853 53.601 121.179 52.4565 123.987 50.9923Z" fill="#2EA144"/>
<path d="M115.821 54.5594C118.853 53.6008 121.179 52.4563 123.987 50.9922L124.137 51.6095C123.393 52.1175 122.454 52.6929 122.003 53.4757C121.901 55.7094 121.043 56.4697 122.285 58.6625C125.138 60.1017 127.001 60.8589 130.235 59.749C131.054 59.4678 135.69 57.5535 134.992 56.4352L135.505 56.2588L135.623 56.3417C136.447 55.8814 140.955 54.0142 141.166 53.6554L141.37 53.3743L141.534 53.7987L141.659 53.8618C143.254 54.9143 146.43 56.1129 147.224 57.0109C146.683 57.3423 142.134 55.1444 141.298 54.7872C137.712 55.9334 136.344 57.0109 133.275 59.1157C130.602 60.9487 126.229 61.508 123.264 59.965C122.963 59.8101 122.666 59.6469 122.375 59.4752C122.207 59.3282 121.941 58.9987 121.784 58.8176C120.284 56.0136 117.817 58.5888 114.938 55.7045C113.886 55.645 107.018 56.049 106.787 55.9403L106.777 55.7791C108.713 55.6126 110.481 55.0853 112.431 55.0368C113.696 55.0053 114.602 54.8194 115.821 54.5594Z" fill="#B6DA30"/>
<path d="M115.821 54.5594C118.853 53.6008 121.179 52.4563 123.987 50.9922L124.137 51.6095C123.393 52.1175 122.454 52.6929 122.003 53.4757L121.403 53.7438C121.512 54.3061 120.879 55.7068 120.685 56.874C119.725 57.0994 115.818 56.2438 115.388 55.2404C116.022 55.1815 116.628 55.1597 117.233 54.9734C116.738 54.9673 116.402 54.9973 115.929 54.8396L115.821 54.5594Z" fill="#2EA144"/>
<path d="M115.821 54.5594C118.853 53.6008 121.179 52.4563 123.987 50.9922L124.137 51.6095C123.393 52.1175 122.454 52.6929 122.003 53.4757L121.403 53.7438C120.484 54.0553 118.176 54.7984 117.233 54.9734C116.738 54.9673 116.402 54.9973 115.929 54.8396L115.821 54.5594Z" fill="#B6DA30"/>
<path d="M138.628 46.6973C138.575 47.828 138.49 49.2838 138.727 50.3729C138.866 51.0404 138.947 51.3486 139.177 51.9892C139.785 52.5026 140.547 53.1858 141.166 53.6549C140.956 54.0137 136.448 55.8809 135.623 56.3412L135.506 56.2583C135.627 54.9838 135.514 53.7414 135.418 52.4697C135.538 49.803 136.782 48.5941 138.628 46.6973Z" fill="#2EA144"/>
<path d="M123.987 50.9923C126.15 49.902 130.825 50.0905 133.212 50.6009C133.432 50.648 134.241 51.3734 134.501 51.5733L134.732 51.3492C134.779 50.7898 134.773 50.3236 135.133 49.8987C136.207 48.631 137.387 47.2982 138.572 46.1348C138.899 46.9371 138.79 49.4547 138.727 50.3736C138.49 49.2844 138.575 47.8287 138.628 46.6979C136.782 48.5948 135.538 49.8037 135.418 52.4703C134.895 52.0713 134.433 51.8007 133.815 52.129L132.988 51.2593C130.65 50.6123 126.44 50.6441 124.137 51.6097L123.987 50.9923Z" fill="#A1D437"/>
<path d="M133.815 52.1291C134.433 51.8008 134.895 52.0713 135.418 52.4704C135.514 53.7421 135.627 54.9846 135.505 56.259L134.992 56.4354C134.605 54.6768 134.814 53.8376 133.815 52.1291Z" fill="#B6DA30"/>
<path d="M125.639 51.8818C126.003 51.908 125.839 51.849 126.131 52.0513C124.946 54.0868 125.523 54.9677 124.844 57.1362C124.744 57.4546 123.976 57.6817 123.62 57.8198L123.333 57.7559L123.244 57.5295C123.798 55.7537 124.324 53.0796 125.639 51.8818Z" fill="#F9E71E"/>
<path d="M133.026 82.4888C135.343 82.3772 137.287 83.0954 139.036 84.5923C140.194 87.5142 138.946 98.5027 139.943 99.5961C140.53 100.24 141.567 100.093 142.355 100.087C142.142 101.069 142.033 101.364 141.65 102.291C139.962 102.664 139.037 102.697 137.374 102.337C136.728 101.591 136.473 100.984 136.104 100.106C134.442 101.859 131.15 103.285 128.765 102.417C127.188 101.842 126.555 100.663 125.865 99.2538C124.057 93.7639 132.602 90.8593 136.468 89.4684C136.357 87.021 136.348 86.59 135.045 84.4957C130.34 83.5985 129.823 85.4075 129.067 89.6966C128.04 89.285 126.667 89.1723 126.583 87.9851C126.491 86.8224 126.86 85.671 127.61 84.7794C129.039 83.1122 130.963 82.648 133.026 82.4888Z" fill="#F9E71E"/>
<path d="M136.024 91.0889L136.135 91.125C136.685 92.0479 135.87 97.8079 135.618 99.1916C134.46 100.265 131.572 101.764 130.257 100.304C129.941 99.9325 129.527 99.5166 129.187 99.1569C129.036 97.909 128.861 96.9948 129.354 95.7858C130.426 93.1586 133.59 92.0753 136.024 91.0889Z" fill="#2EA144"/>
<path d="M170.838 82.4897C172.994 82.3289 177.1 83.3692 177.425 85.7664C178.025 90.1853 177.312 95.0628 177.721 99.5128C178.816 100.017 179.717 99.8999 180.221 100.533C180.316 102.087 178.49 102.864 177.156 102.621C175.711 102.357 174.973 101.632 174.152 100.486L174.03 100.312C173.697 100.353 172.117 101.46 171.656 101.695C168.136 103.493 165.689 102.82 163.995 99.2196C162.803 93.1404 170 90.9927 174.442 89.4227C174.438 87.5017 174.522 84.7367 172.094 84.3129C168.083 83.6132 167.442 86.5561 167.048 89.7202C166.182 89.3187 165.109 89.0024 164.388 88.6326C163.696 87.2078 164.737 86.0499 165.65 84.9674C167.047 83.3135 168.72 82.6603 170.838 82.4897Z" fill="#F9E71E"/>
<path d="M173.81 91.085L174.181 91.1066C174.584 92.0714 174.015 97.9369 173.825 99.2613C172.245 100.306 170.143 101.344 168.368 100.16C168.016 99.8838 167.588 99.5459 167.442 99.1082C165.85 94.3304 170.338 92.4094 173.81 91.085Z" fill="#2EA144"/>
<path d="M51.6815 73.3772C54.1974 73.1727 56.5971 73.8231 58.9883 74.5134L60.4023 73.3359C60.4558 74.9085 61.3886 81.2028 60.6423 82.071C59.6405 81.4047 58.6614 77.4085 57.2685 76.303C53.7937 73.5454 47.2496 73.8942 47.7123 79.7138C47.8682 82.1634 50.1218 84.1241 52.4623 85.2045C58.4279 87.9577 66.7794 92.4365 60.7321 100.142C59.2098 102.082 56.0598 102.831 53.5062 102.937C51.681 102.876 50.4151 102.668 48.6719 102.041C48.0518 101.817 46.8019 101.318 46.219 101.204C45.5606 101.495 45.59 102.111 44.8805 102.661L44.5747 102.619L44.4688 102.34C45.018 100.245 43.752 95.0753 44.89 94.1842C46.5172 94.8226 46.6169 102.69 55.0144 101.423C56.2565 101.231 57.3679 100.544 58.0951 99.5181C62.6366 93.2223 52.461 89.9407 48.8352 87.4264C47.7665 86.6853 46.0913 85.3616 45.4541 84.1853C42.4558 78.6492 45.8988 74.2207 51.6815 73.3772Z" fill="#F9E71E"/>
<path d="M249.367 72.8135L249.43 72.8487C249.596 73.1692 249.483 85.3647 249.434 86.5718C250.919 85.2863 253.02 83.4227 254.888 83.0149C259.476 82.0136 261.043 86.0002 260.844 89.785C260.838 92.652 260.714 95.5464 260.739 98.4091C260.758 100.782 262.092 100.282 262.951 101.538C262.938 101.686 262.974 101.926 262.801 101.974C261.692 102.28 256.312 102.689 255.783 101.683C256.063 100.97 256.774 100.802 257.44 100.538C257.798 97.18 257.65 93.0896 257.778 89.6651C257.833 88.202 257.832 87.2991 256.829 86.2859C253.813 84.0851 251.935 86.3314 249.586 88.3118C249.378 90.757 249.052 98.6012 250.02 100.652C250.75 101.028 251.382 101.298 251.998 101.842V102.052C251.131 102.523 245.19 102.697 244.451 101.93L244.48 101.616C244.825 101.175 245.35 101.059 245.889 100.864L245.92 100.736C246.507 98.2733 246.565 77.7352 245.79 75.6669C244.938 74.7612 243.663 74.7268 242.408 74.2093L242.253 74.1444C244.611 73.7451 246.996 73.2362 249.367 72.8135Z" fill="#F9E71E"/>
<path d="M170.398 121.89C172.946 119.007 180.964 117.615 182.785 121.86C183.438 121.987 184.482 121.565 185.272 121.464C185.48 122.466 185.558 125.518 185.761 125.852L186.038 125.924L186.232 125.876L186.79 126.33C183.411 127.614 180.902 130.127 176.979 129.844C175.721 129.754 174.737 129.753 173.499 129.35C172.854 129.174 172.675 129.168 172.161 128.774L171.666 128.083C172.082 127.911 171.912 128.047 172.156 127.618C171.02 125.678 170.848 126.113 170.3 123.57C170.485 123.025 170.587 122.946 170.954 122.484L170.912 122.323C170.564 122.612 170.502 122.667 170.111 122.885L170.001 122.718C170.126 122.299 170.166 122.27 170.398 121.89Z" fill="#2EA144"/>
<path d="M182.785 121.86C183.439 121.987 184.482 121.565 185.272 121.464C185.48 122.466 185.558 125.518 185.761 125.852L186.038 125.924L185.014 126.287C184.046 126.835 183.655 127.078 182.785 127.763C182.522 126.832 182.379 126.405 182.446 125.434C182.711 124.701 182.583 123.882 182.439 123.132L182.434 123.06L182.848 122.819C182.77 122.371 182.772 122.316 182.785 121.86Z" fill="#2EA144"/>
<path d="M182.785 121.86C183.438 121.987 184.482 121.565 185.272 121.464C185.48 122.466 185.558 125.518 185.761 125.852L186.038 125.924L185.014 126.287C184.785 125.095 185.272 123.586 184.37 122.768C183.838 122.52 183.459 122.687 182.848 122.819C182.77 122.371 182.772 122.316 182.785 121.86Z" fill="#A1D437"/>
<path d="M180.787 125.772C181.494 125.345 181.276 124.881 182.182 124.926C182.45 125.21 182.378 125.037 182.446 125.434C182.38 126.405 182.522 126.832 182.785 127.763C183.655 127.078 184.046 126.835 185.014 126.286L186.039 125.924L186.232 125.876L186.79 126.33C183.411 127.614 180.902 130.127 176.979 129.844C175.721 129.754 174.737 129.753 173.499 129.35L174.047 128.833C175.907 129.793 180.338 129.257 181.89 127.794C182.082 127.269 182.094 127.513 181.931 127.037C181.499 126.648 181.443 126.663 180.846 126.558L180.787 125.772Z" fill="#B6DA30"/>
<path d="M170.398 121.89C172.946 119.007 180.964 117.615 182.785 121.86C182.772 122.316 182.77 122.371 182.848 122.819L182.434 123.06C181.883 122.915 182.027 122.264 181.961 121.689C178.723 118.174 174.088 119.82 170.954 122.484L170.912 122.323C170.564 122.612 170.502 122.667 170.111 122.885L170.001 122.718C170.126 122.299 170.166 122.27 170.398 121.89Z" fill="#B6DA30"/>
<path d="M179.69 125.119L179.641 124.894C180.599 124.329 181.436 123.694 182.439 123.132C182.583 123.881 182.711 124.7 182.446 125.434C182.378 125.037 182.45 125.21 182.182 124.926C181.276 124.881 181.494 125.345 180.787 125.772C180.432 125.483 180.093 125.33 179.69 125.119Z" fill="#4CB13C"/>
<path d="M181.961 121.689C182.027 122.264 181.883 122.916 182.434 123.06L182.439 123.132C181.436 123.694 180.599 124.33 179.641 124.894L179.69 125.12C179.567 125.087 179.032 124.788 178.885 124.708C179.465 124.304 180.199 123.826 180.739 123.391C181.794 122.54 181.802 122.839 181.961 121.689Z" fill="#A1D437"/>
<path d="M180.846 126.558C180.012 126.385 178.79 126.272 178.451 125.41C178.543 124.981 178.557 125.013 178.885 124.708C179.032 124.787 179.567 125.086 179.69 125.12C180.093 125.331 180.432 125.484 180.787 125.772L180.846 126.558Z" fill="#F9E71E"/>
<path d="M172.156 127.618C172.854 128.274 173.183 128.415 174.047 128.833L173.499 129.35C172.854 129.174 172.675 129.168 172.161 128.774L171.667 128.083C172.082 127.911 171.912 128.047 172.156 127.618Z" fill="#B6DA30"/>
<path d="M121.38 122.146C123.576 118.076 130.026 119.078 133.287 121.167C133.872 121.542 134.957 122.039 135.418 122.484L136.083 122.776C136.065 122.999 136.082 123.128 135.998 123.314C135.638 124.873 135.111 126.287 134.07 127.53C133.264 128.309 133.009 128.557 132.073 129.162C126.927 130.956 123.967 129.203 119.948 126.271L120.153 125.897L120.108 125.804C120.512 124.136 120.644 123.645 121.38 122.146Z" fill="#2EA144"/>
<path d="M121.38 122.146C123.576 118.076 130.026 119.078 133.287 121.167C133.872 121.542 134.957 122.039 135.418 122.484C135.345 122.881 135.274 123.186 135.274 123.593C134.975 122.796 132.922 121.749 132.104 121.314C129.085 119.709 123.578 118.97 121.84 122.725L121.38 122.146Z" fill="#B6DA30"/>
<path d="M120.153 125.896C120.596 125.995 120.778 125.995 121.121 126.297C124.252 128.791 127.043 130.016 131.07 128.743C131.52 129.101 131.497 129.08 132.073 129.162C126.927 130.956 123.967 129.203 119.948 126.271L120.153 125.896Z" fill="#B6DA30"/>
<path d="M135.418 122.483L136.083 122.775C136.065 122.999 136.083 123.128 135.998 123.314C135.638 124.872 135.111 126.286 134.07 127.53C133.264 128.308 133.009 128.557 132.073 129.162C131.497 129.08 131.52 129.101 131.07 128.743C133.243 127.684 134.485 125.808 135.275 123.593C135.275 123.185 135.346 122.881 135.418 122.483Z" fill="#F9E71E"/>
<path d="M120.108 125.804C120.512 124.136 120.644 123.645 121.38 122.146L121.84 122.725C121.414 123.941 121.289 125.021 121.121 126.297C120.778 125.995 120.596 125.995 120.153 125.896L120.108 125.804Z" fill="#B6DA30"/>
<path d="M123.708 122.688C124.08 122.725 124.147 122.759 124.507 122.875C125.336 123.687 125.211 124.305 125.228 125.464L125.35 125.554C125.507 124.994 125.49 124.653 126.106 124.595C126.599 125.044 126.664 125.524 126.176 126.008C125.589 126.37 125.131 126.668 124.483 126.906L124.255 126.795C123.929 126.036 125.008 125.09 124.148 124.23C123.993 124.075 123.639 123.312 123.53 123.057L123.708 122.688Z" fill="#B6DA30"/>
<path d="M152.74 32.3051L152.632 32.2812L152.571 32.125L152.492 32.2026L152.418 32.0323C152.656 31.9157 152.748 31.8401 153.027 31.976C156.003 33.4298 159.882 38.1394 159.261 41.5991C158.657 42.3229 157.681 42.8629 156.956 43.4882C156.107 44.2197 156.08 43.9904 155.962 45.1578L155.685 45.3261C154.102 45.2094 153.506 45.9054 152.18 46.0484C149.645 46.3217 146.843 42.8842 146.791 40.5199C146.731 37.8023 147.928 36.3393 149.641 34.5151C150.313 33.9083 151.117 33.2042 151.893 32.7429C152.086 32.6277 152.056 32.6981 152.399 32.7958C152.724 32.6144 152.581 32.7403 152.74 32.3051Z" fill="#2EA144"/>
<path d="M149.641 34.5146L150.04 35.0059C147.251 37.464 147.022 41.7305 149.877 44.2593C152.298 46.4037 153.903 44.6537 155.863 43.0255C156.671 42.3546 157.829 41.7496 158.52 41.0729L159.261 41.5987C158.657 42.3224 157.681 42.8625 156.956 43.4877C156.107 44.2193 156.08 43.9899 155.962 45.1574L155.685 45.3256C154.102 45.2089 153.506 45.905 152.18 46.048C149.645 46.3212 146.843 42.8837 146.791 40.5195C146.731 37.8018 147.928 36.3388 149.641 34.5146Z" fill="#F9E71E"/>
<path d="M152.74 32.3051L152.632 32.2812L152.571 32.125L152.492 32.2026L152.418 32.0323C152.656 31.9157 152.748 31.8401 153.027 31.976C156.003 33.4298 159.882 38.1394 159.261 41.5991L158.52 41.0734C158.693 38.9343 157.047 36.5588 155.76 34.9576C155.139 34.1852 153.705 32.4129 152.74 32.3051Z" fill="#F9E71E"/>
<path d="M149.641 34.5155C150.313 33.9087 151.117 33.2046 151.893 32.7433C152.086 32.628 152.056 32.6985 152.399 32.7961C152.102 33.5637 150.785 34.3742 150.04 35.0067L149.641 34.5155Z" fill="#B6DA30"/>
<path d="M146.53 138.39C148.575 135.939 151.694 133.988 154.975 134.622C156.006 135.419 158.462 137.921 158.925 139.095C159.199 141.257 157.87 143.461 156.553 145.077C155.503 146.364 153.872 148.51 152.747 149.636C151.3 148.084 149.424 146.07 148.338 144.255C146.991 142.29 146.845 140.724 146.53 138.39Z" fill="#2EA144"/>
<path d="M146.53 138.39C148.575 135.939 151.694 133.988 154.975 134.622C156.006 135.419 158.462 137.921 158.925 139.095C158.447 139.478 158.469 139.499 157.893 139.65C157.551 138.387 157.394 138.331 156.373 137.523C155.736 137.323 155.464 137.687 155.321 137.613C154.208 137.035 152.692 136.527 151.591 136.096C146.981 138.103 146.799 139.381 148.776 143.828L148.338 144.255C146.991 142.29 146.845 140.724 146.53 138.39Z" fill="#F9E71E"/>
<path d="M153.695 134.979C154.972 135.942 155.295 136.352 156.373 137.523C155.737 137.323 155.464 137.687 155.321 137.613C154.209 137.035 152.692 136.527 151.591 136.096C152.284 135.727 152.998 135.332 153.695 134.979Z" fill="#4CB13C"/>
<path d="M158.925 139.095C159.199 141.257 157.87 143.461 156.553 145.077C155.503 146.364 153.872 148.51 152.747 149.635C151.3 148.084 149.424 146.069 148.338 144.255L148.776 143.828C149.433 144.897 151.691 148.294 152.845 148.424C153.092 148.318 153.418 148.156 153.588 147.943C155.65 145.366 157.836 143.129 157.893 139.649C158.469 139.499 158.447 139.477 158.925 139.095Z" fill="#B6DA30"/>
<path d="M157.867 82.459C159.833 82.6947 161.069 85.8938 160.278 87.1225C158.091 87.6823 157.833 83.0064 152.857 88.1257C152.382 91.3393 152.591 96.8249 152.88 100.16C152.969 101.207 155.48 101.032 155.726 102C154.98 102.518 150.19 102.407 149.071 102.419C148.49 102.459 147.246 102.648 146.921 102.103C147.36 101.402 149.31 100.69 149.366 99.6847C149.61 95.5409 149.58 91.3754 149.492 87.2303C149.434 84.4627 147.037 85.5565 147.056 84.1632C147.912 83.4694 151.274 82.4434 152.278 83.3358C152.59 84.0168 152.539 84.764 152.564 85.5322C153.679 84.2853 156.234 82.8241 157.867 82.459Z" fill="#F9E71E"/>
<path d="M144.596 124.348C145.33 123.548 146.041 122.776 147.153 122.524C149.727 121.942 150.202 125.453 150.063 127.256C149.936 128.9 148.9 130.344 147.634 131.323C146.061 132.594 141.957 134.284 140.01 134.203C139.996 134.143 140.027 134.212 139.876 133.93L139.531 134.197L139.343 134.108C139.402 133.672 139.452 133.803 139.31 133.449L139.022 133.526C138.973 133.812 138.922 134.218 138.831 134.481C138.599 134.316 138.484 134.137 138.3 133.914C136.863 132.588 135.13 129.932 134.411 128.06C134.279 127.682 134.354 127.799 134.07 127.53C135.111 126.287 135.638 124.873 135.998 123.314C136.082 123.128 136.065 122.999 136.083 122.776C137.957 123.254 143.038 125.045 144.97 125.806C145.61 125.936 146.508 126.059 146.922 126.589C146.363 127.071 143.257 126.028 142.36 125.934C139.435 127.551 139.132 130.275 139.822 133.3C140.974 133.238 142.265 133.114 143.318 132.653C145.985 131.486 149.426 129.21 148.926 125.832C148.414 122.367 146.821 123.177 144.596 124.348Z" fill="#2EA144"/>
<path d="M144.596 124.348C145.33 123.548 146.041 122.776 147.153 122.524C149.727 121.942 150.202 125.453 150.063 127.256C149.936 128.9 148.9 130.344 147.634 131.323C146.061 132.594 141.957 134.284 140.01 134.203C139.996 134.143 140.027 134.212 139.876 133.93L139.53 134.197L139.343 134.108C139.402 133.672 139.452 133.803 139.31 133.449L139.022 133.526C138.7 133.157 138.519 131.495 138.532 130.997C138.589 128.881 139.365 127.481 140.79 126.033C141.574 125.747 141.283 125.926 141.884 125.243C142.644 125.166 143.864 125.832 144.97 125.806C145.61 125.936 146.508 126.059 146.922 126.589C146.362 127.071 143.257 126.028 142.36 125.934C139.435 127.551 139.132 130.275 139.822 133.3C140.974 133.238 142.265 133.114 143.318 132.653C145.985 131.486 149.426 129.21 148.926 125.832C148.414 122.367 146.821 123.177 144.596 124.348Z" fill="#F9E71E"/>
<path d="M136.083 122.775C137.956 123.253 143.038 125.044 144.969 125.806C143.864 125.832 142.644 125.166 141.884 125.242C141.283 125.925 141.574 125.746 140.79 126.032C141.009 125.767 141.169 125.541 141.368 125.261C140.345 124.763 137.37 123.879 135.998 123.314C136.082 123.128 136.064 122.999 136.083 122.775Z" fill="#B6DA30"/>
<path d="M134.411 128.06L134.669 127.83C135.22 128.139 137.597 132.461 138.277 133.35C138.349 133.444 138.334 133.759 138.3 133.914C136.863 132.588 135.13 129.932 134.411 128.06Z" fill="#B6DA30"/>
<path d="M162.588 126.289C161.583 126.363 160.915 126.535 159.876 126.455L159.745 126.293C160.511 125.593 163.404 125.525 164.574 124.986C166.586 124.059 168.466 122.966 170.398 121.89C170.166 122.27 170.126 122.298 170.002 122.717L170.111 122.885C170.502 122.667 170.564 122.612 170.912 122.323L170.954 122.483C170.587 122.945 170.485 123.025 170.3 123.569C170.849 126.113 171.02 125.678 172.156 127.618C171.912 128.047 172.082 127.911 171.667 128.083L172.162 128.773C169.697 129.832 168.716 131.337 167.11 133.426C166.483 134.945 165.334 136.726 163.842 137.451C163.128 137.798 160.185 138.835 159.507 138.632C160.504 136.966 166.334 137.422 165.931 132.692C165.751 130.556 164.932 126.977 162.588 126.289Z" fill="#2EA144"/>
<path d="M162.588 126.289C162.45 126.198 162.382 126.091 162.267 125.96L162.379 125.756C162.949 125.552 163.043 125.6 163.668 125.674C165.607 126.981 167.002 129.755 166.852 132.101C166.807 132.953 167.008 132.849 167.11 133.425C166.483 134.945 165.334 136.726 163.842 137.451C163.128 137.797 160.185 138.834 159.507 138.632C160.504 136.965 166.334 137.422 165.931 132.692C165.751 130.555 164.932 126.976 162.588 126.289Z" fill="#F9E71E"/>
<path d="M162.588 126.289C161.583 126.363 160.915 126.535 159.876 126.455L159.745 126.293C160.511 125.593 163.404 125.525 164.574 124.986C166.586 124.059 168.466 122.966 170.398 121.89C170.166 122.27 170.126 122.298 170.002 122.717L170.111 122.885C170.502 122.667 170.564 122.612 170.912 122.323L170.954 122.483C170.587 122.945 170.485 123.025 170.3 123.569C170.26 123.425 170.297 123.528 170.101 123.307L169.474 123.318C167.719 123.591 166.028 125.593 163.942 125.477L163.668 125.674C163.043 125.6 162.949 125.552 162.379 125.756L162.267 125.96C162.382 126.091 162.45 126.198 162.588 126.289Z" fill="#A1D437"/>
<path d="M169.473 123.318L170.101 123.307C170.297 123.528 170.26 123.425 170.3 123.57C170.848 126.113 171.02 125.678 172.156 127.618C171.912 128.047 172.082 127.911 171.666 128.083L171.508 128.084C170.965 127.716 170.278 126.35 169.97 125.732C169.524 124.839 169.228 124.312 169.473 123.318Z" fill="#F9E71E"/>
<path d="M171.508 128.084L171.667 128.083L172.161 128.773C169.697 129.832 168.716 131.337 167.11 133.426C167.008 132.849 166.807 132.953 166.852 132.101C166.999 132.415 166.898 132.289 167.138 132.491C167.582 131.869 168.047 131.292 168.498 130.684C169.322 129.578 170.455 129.078 171.508 128.084Z" fill="#B6DA30"/>
<path d="M142.605 46.4531C146.56 46.7531 151.763 50.5946 150.374 55.04C149.939 56.4319 149.172 57.817 148.504 59.1179C148.344 58.8855 147.667 57.8663 147.805 57.6532C148.737 56.2216 149.387 55.0833 149.939 53.4657C147.979 49.7505 146.911 48.7914 142.876 47.3649C142.528 46.9257 142.629 47.1089 142.605 46.4531Z" fill="#B6DA30"/>
<path d="M163.476 133.085C162.805 133.083 162.053 133.088 161.388 133.025C159.28 132.829 157.341 131.789 156.009 130.143C154.903 128.759 154.213 126.718 154.425 124.94C154.628 123.231 155.744 121.66 157.632 121.978L156.853 122.743C155.079 124.016 155.276 126.575 156.177 128.35C157.598 131.149 160.635 132.243 163.476 133.085Z" fill="#F9E71E"/>
<path d="M159.971 46.7979L160.475 47.0947C157.676 49.2038 153.605 52.588 156.191 57.0247C156.667 57.8425 157.342 58.0635 158.107 57.3652L158.602 57.6282C158.042 58.2384 157.354 58.878 156.465 58.6805C156.035 58.3879 155.839 57.9651 155.604 57.5128C154.683 55.7443 153.887 54.236 154.631 52.208C155.622 49.5067 157.52 48.0177 159.971 46.7979Z" fill="#F9E71E"/>
<path d="M138.572 46.135C138.96 45.1374 140.734 42.9886 141.73 42.3076L141.902 42.9384L141.768 43.0998C141.542 43.3682 140.739 44.1 140.626 44.3004C139.958 45.4917 140.006 47.6418 140.111 48.9575C140.236 50.5243 140.556 52.0547 141.37 53.3747L141.166 53.6558C140.547 53.1866 139.784 52.5035 139.177 51.99C138.947 51.3494 138.866 51.0412 138.727 50.3738C138.791 49.4549 138.899 46.9373 138.572 46.135Z" fill="#B6DA30"/>
<path d="M200.77 124.276C200.738 124.24 200.708 124.204 200.676 124.169C198.963 122.25 190.442 120.885 187.891 120.775C186.722 120.725 184.281 121.112 183.401 120.389L183.362 120.164C185.855 118.867 200.621 121.707 201.819 124.517L201.689 124.696C201.402 124.676 201.4 124.691 201.126 124.617L200.77 124.276Z" fill="#A1D437"/>
<path d="M106.437 56.2715C107.346 56.9675 108.891 57.1827 109.897 57.5607C113.377 58.8684 115.033 59.8569 118.862 59.3355C119.842 59.1953 120.816 59.0225 121.784 58.8176C121.941 58.9987 122.207 59.3281 122.375 59.4752C120.691 59.6778 119.254 60.2436 117.46 60.3448C114.415 60.5164 111.758 58.7788 108.98 57.7594C107.978 57.3914 106.987 57.1937 106.015 56.7926C106.175 56.6717 106.307 56.4493 106.437 56.2715Z" fill="#A1D437"/>
<path d="M115.598 120.62C116.883 120.512 118.176 120.542 119.455 120.71C120.446 120.835 120.81 120.739 121.805 120.601L121.82 120.801C120.197 121.929 119.542 121.269 117.877 121.166C115.523 121.023 113.069 121.363 110.808 121.992C109.869 122.271 105.863 123.58 105.219 123.46L105.274 123.315C107.084 121.939 113.246 120.789 115.598 120.62Z" fill="#B6DA30"/>
<path d="M189.485 124.86C190.042 124.446 198.007 124.574 199.328 124.618L199.315 124.931C195.594 125.415 193.397 125.712 189.611 125.64C189.022 125.809 188.718 125.812 188.1 125.863L188.398 125.317L189.12 124.811L189.485 124.86Z" fill="#B6DA30"/>
<path d="M189.12 124.812L189.485 124.861C189.832 125.017 190.175 125.112 190.361 125.398L189.611 125.641C189.022 125.81 188.718 125.812 188.1 125.863L188.398 125.317L189.12 124.812Z" fill="#A1D437"/>
<path d="M117.418 123.719L117.858 123.751L117.959 123.954C117.651 124.738 117.15 125.084 116.482 125.586C116.103 125.643 115.952 125.663 115.571 125.669C113.004 124.458 109.366 123.956 106.567 124.663L106.371 124.305C109.835 122.998 112.874 124.6 116.242 124.512C116.771 124.499 117.114 124.11 117.418 123.719Z" fill="#A1D437"/>
<path d="M196.305 58.3613L196.486 58.7981C191.258 61.5101 190.489 60.6671 185.447 58.9782L185.644 58.6739C186.627 58.6113 187.232 58.8455 188.177 59.1455C191.416 60.175 193.364 59.7606 196.305 58.3613Z" fill="#A1D437"/>
<path d="M139.022 133.526L139.31 133.449C139.452 133.803 139.402 133.672 139.343 134.108L139.531 134.197L139.876 133.93C140.027 134.212 139.996 134.142 140.01 134.203C138.793 135.975 143.535 138.22 144.918 138.255C145.247 138.263 145.662 138.325 145.895 138.545C145.177 139.44 144.255 138.909 143.366 138.551C141.485 137.791 139.519 136.494 138.831 134.48C138.922 134.218 138.973 133.812 139.022 133.526Z" fill="#F9E71E"/>
<path d="M141.534 53.7982C142.716 52.7328 145.465 52.6792 147.003 52.7598C147.283 53.0706 147.217 52.8924 147.204 53.3128C146.322 53.8345 142.995 53.7094 141.658 53.8614L141.534 53.7982Z" fill="#A1D437"/>
<path d="M165.21 44.7103C164.734 44.0621 164.038 43.2265 163.405 42.7069C162.711 42.1368 160.163 41.9128 159.804 41.3662L159.922 41.1422C161.966 40.5879 164.416 42.7031 165.61 44.1623L165.21 44.7103Z" fill="#B6DA30"/>
<path d="M117.418 123.718C117.906 123.217 118.588 122.354 119.328 122.394C119.34 122.892 118.047 124.404 117.649 124.961C118.367 125.169 119.655 125.686 120.108 125.804L120.153 125.896L119.948 126.271C117.497 125.589 117.516 126.005 115.571 125.668C115.952 125.662 116.103 125.642 116.482 125.586C117.15 125.083 117.65 124.738 117.959 123.954L117.858 123.75L117.418 123.718Z" fill="#B6DA30"/>
<path d="M157.632 121.978C158.974 122.606 161.769 123.006 162.399 123.796L162.284 123.963C160.149 124.066 158.639 122.71 156.853 122.743L157.632 121.978Z" fill="#B6DA30"/>
<path d="M141.73 42.3072C142.785 41.7559 145.533 40.7631 146.372 42.0664C145.854 42.5213 143.645 41.7871 141.902 42.938L141.73 42.3072Z" fill="#B6DA30"/>
<path d="M187.884 125.016C188.312 124.384 187.764 123.594 187.815 122.663L188.043 122.554C189.327 123.038 189.128 123.618 189.12 124.811L188.398 125.317L187.884 125.016Z" fill="#A1D437"/>
<path d="M159.971 46.7981C161.193 46.0258 162.655 45.537 164.108 45.5646L164.186 45.6897C162.982 46.6545 161.69 46.3 160.475 47.0949L159.971 46.7981Z" fill="#A1D437"/>
<path d="M158.121 124.414C158.876 124.972 158.182 125.347 158.622 126.345C158.905 126.544 159.03 126.634 159.283 126.867L159.139 127.148C157.743 126.484 156.941 125.915 158.121 124.414Z" fill="#B6DA30"/>
<path d="M106.567 124.663C105.878 124.93 104.215 125.493 103.617 125.031C104.173 124.39 105.493 124.396 106.371 124.305L106.567 124.663Z" fill="#B6DA30"/>
<path d="M106.015 56.7921C105.485 56.73 104.296 56.6825 103.917 56.4363L104.091 56.1973C104.806 55.8567 105.829 55.6801 106.437 56.271C106.307 56.4488 106.175 56.6712 106.015 56.7921Z" fill="#B6DA30"/>
<path d="M196.305 58.3609C196.885 57.8488 198.413 57.2896 199.119 56.9385L199.589 57.4105C198.256 57.4944 197.643 58.2975 196.486 58.7976L196.305 58.3609Z" fill="#B6DA30"/>
<path d="M187.884 125.017L188.397 125.317L188.1 125.863L186.79 126.329L186.232 125.876C186.833 125.532 187.239 125.29 187.884 125.017Z" fill="#B6DA30"/>
<path d="M199.119 56.9383C199.481 56.5478 199.539 56.4178 200.063 56.3291C200.601 56.4646 200.4 56.3219 200.716 56.7214C200.609 57.1769 200.725 56.9945 200.355 57.2857L199.589 57.4103L199.119 56.9383Z" fill="#B6DA30"/>
<path d="M200.77 124.275L201.126 124.616C200.308 124.875 200.168 124.918 199.315 124.931L199.328 124.618C199.976 124.574 200.239 124.675 200.77 124.275Z" fill="#4CB13C"/>
</svg>
