<svg width="713" height="116" viewBox="0 0 713 116" fill="none" xmlns="http://www.w3.org/2000/svg">
<path d="M12.038 33.852C12.038 37.908 13.026 41.444 15.002 44.46C16.978 47.476 19.37 50.024 22.178 52.104C24.986 54.08 28.938 56.628 34.034 59.748C39.442 62.972 43.654 65.676 46.67 67.86C49.686 70.044 52.234 72.852 54.314 76.284C56.498 79.612 57.59 83.616 57.59 88.296C57.59 93.288 56.342 97.812 53.846 101.868C51.35 105.924 47.658 109.148 42.77 111.54C37.986 113.828 32.214 114.972 25.454 114.972C17.446 114.972 10.114 113.152 3.458 109.512C2.938 109.2 2.574 108.836 2.366 108.42C2.262 108.004 2.158 107.38 2.054 106.548L0.0260001 85.332C-0.0780001 84.916 0.13 84.656 0.65 84.552C1.274 84.448 1.638 84.604 1.742 85.02C3.302 92.404 6.37 98.852 10.946 104.364C15.522 109.772 21.554 112.476 29.042 112.476C34.242 112.476 38.61 111.072 42.146 108.264C45.786 105.352 47.606 100.776 47.606 94.536C47.606 89.856 46.566 85.8 44.486 82.368C42.406 78.936 39.858 76.128 36.842 73.944C33.93 71.656 29.926 69.004 24.83 65.988C19.838 62.972 15.886 60.372 12.974 58.188C10.166 56.004 7.774 53.248 5.798 49.92C3.822 46.592 2.834 42.692 2.834 38.22C2.834 33.02 4.186 28.6 6.89 24.96C9.698 21.216 13.286 18.46 17.654 16.692C22.126 14.82 26.858 13.884 31.85 13.884C37.986 13.884 44.07 15.132 50.102 17.628C51.662 18.148 52.442 19.032 52.442 20.28L53.534 38.064C53.534 38.584 53.222 38.844 52.598 38.844C52.078 38.844 51.766 38.636 51.662 38.22C50.934 32.812 48.75 27.82 45.11 23.244C41.47 18.564 36.218 16.224 29.354 16.224C23.53 16.224 19.162 17.94 16.25 21.372C13.442 24.7 12.038 28.86 12.038 33.852Z" fill="white"/>
<path d="M115.531 114.036C115.115 114.244 114.699 114.348 114.283 114.348C112.723 114.348 111.371 113.152 110.227 110.76C109.083 108.368 108.511 105.196 108.511 101.244V71.76C108.511 60.112 105.235 54.288 98.6829 54.288C95.1469 54.288 92.4429 55.484 90.5709 57.876C88.8029 60.164 87.6069 62.816 86.9829 65.832C86.5669 67.808 85.9429 69.368 85.1109 70.512C84.3829 71.656 83.0309 72.228 81.0549 72.228C79.3909 72.228 78.0909 71.76 77.1549 70.824C76.3229 69.888 75.9069 68.796 75.9069 67.548C75.9069 65.052 77.5189 62.556 80.7429 60.06C83.9669 57.564 87.8149 55.484 92.2869 53.82C96.7589 52.156 100.763 51.324 104.299 51.324C108.563 51.324 111.787 52.676 113.971 55.38C116.155 58.084 117.247 61.984 117.247 67.08V96.252C117.247 99.892 117.715 102.544 118.651 104.208C119.587 105.872 121.095 106.704 123.175 106.704C125.255 106.704 127.855 106.028 130.975 104.676H131.287C131.703 104.676 131.963 104.936 132.067 105.456C132.171 105.872 132.015 106.184 131.599 106.392L115.531 114.036ZM87.4509 114.192C83.6029 114.192 80.5869 113.204 78.4029 111.228C76.3229 109.148 75.2829 106.548 75.2829 103.428C75.2829 100.308 76.5309 97.604 79.0269 95.316C81.5229 93.028 85.6309 90.844 91.3509 88.764L110.071 81.744L110.539 83.772L94.0029 90.168C91.0909 91.312 88.9589 92.664 87.6069 94.224C86.3589 95.68 85.7349 97.448 85.7349 99.528C85.7349 102.024 86.5149 104.156 88.0749 105.924C89.7389 107.588 91.8709 108.42 94.4709 108.42C96.5509 108.42 99.0469 107.588 101.959 105.924L111.787 99.996L112.099 102.024L100.555 109.512C97.9549 111.176 95.6669 112.372 93.6909 113.1C91.7149 113.828 89.6349 114.192 87.4509 114.192Z" fill="white"/>
<path d="M219.762 113.1C219.45 113.1 219.294 112.788 219.294 112.164C219.294 111.54 219.45 111.228 219.762 111.228C222.57 111.228 224.65 110.968 226.002 110.448C227.354 109.824 228.29 108.784 228.81 107.328C229.33 105.768 229.59 103.48 229.59 100.464V75.66C229.59 69.524 228.498 64.948 226.314 61.932C224.13 58.916 220.75 57.408 216.174 57.408C212.534 57.408 208.79 58.656 204.942 61.152C201.198 63.544 197.974 66.82 195.27 70.98L194.646 69.108C199.014 62.972 203.33 58.5 207.594 55.692C211.962 52.78 216.538 51.324 221.322 51.324C226.834 51.324 231.046 52.884 233.958 56.004C236.87 59.124 238.326 63.856 238.326 70.2V100.464C238.326 103.584 238.586 105.872 239.106 107.328C239.626 108.784 240.562 109.824 241.914 110.448C243.266 110.968 245.346 111.228 248.154 111.228C248.466 111.228 248.622 111.54 248.622 112.164C248.622 112.788 248.466 113.1 248.154 113.1C245.762 113.1 243.838 113.048 242.382 112.944L233.958 112.788L225.534 112.944C224.078 113.048 222.154 113.1 219.762 113.1ZM179.514 113.1C179.202 113.1 179.046 112.788 179.046 112.164C179.046 111.54 179.202 111.228 179.514 111.228C182.322 111.228 184.402 110.968 185.754 110.448C187.106 109.824 187.99 108.784 188.406 107.328C188.926 105.872 189.186 103.584 189.186 100.464V75.66C189.186 69.524 188.094 64.948 185.91 61.932C183.726 58.916 180.398 57.408 175.926 57.408C172.182 57.408 168.438 58.656 164.694 61.152C160.95 63.544 157.726 66.82 155.022 70.98L154.398 69.108C158.766 62.972 163.082 58.5 167.346 55.692C171.714 52.78 176.238 51.324 180.918 51.324C186.43 51.324 190.642 52.884 193.554 56.004C196.57 59.124 198.078 63.752 198.078 69.888V100.464C198.078 103.584 198.338 105.872 198.858 107.328C199.378 108.784 200.314 109.824 201.666 110.448C203.018 110.968 205.098 111.228 207.906 111.228C208.218 111.228 208.374 111.54 208.374 112.164C208.374 112.788 208.218 113.1 207.906 113.1C205.514 113.1 203.59 113.048 202.134 112.944L193.71 112.788L185.13 112.944C183.778 113.048 181.906 113.1 179.514 113.1ZM139.422 113.1C139.11 113.1 138.954 112.788 138.954 112.164C138.954 111.54 139.11 111.228 139.422 111.228C142.23 111.228 144.31 110.968 145.662 110.448C147.014 109.824 147.898 108.784 148.314 107.328C148.834 105.872 149.094 103.584 149.094 100.464V69.576C149.094 66.04 148.678 63.492 147.846 61.932C147.014 60.372 145.61 59.592 143.634 59.592C141.97 59.592 139.162 60.372 135.21 61.932H134.898C134.482 61.932 134.17 61.724 133.962 61.308C133.858 60.788 134.014 60.424 134.43 60.216L152.526 51.636C152.734 51.532 153.046 51.48 153.462 51.48C154.398 51.48 155.386 52.676 156.426 55.068C157.466 57.46 157.986 60.528 157.986 64.272V100.464C157.986 103.584 158.194 105.872 158.61 107.328C159.13 108.784 160.066 109.824 161.418 110.448C162.77 110.968 164.85 111.228 167.658 111.228C167.97 111.228 168.126 111.54 168.126 112.164C168.126 112.788 167.97 113.1 167.658 113.1C165.266 113.1 163.394 113.048 162.042 112.944L153.618 112.788L145.038 112.944C143.686 113.048 141.814 113.1 139.422 113.1Z" fill="white"/>
<path d="M300.867 114.036C300.451 114.244 300.035 114.348 299.619 114.348C298.059 114.348 296.707 113.152 295.563 110.76C294.419 108.368 293.847 105.196 293.847 101.244V71.76C293.847 60.112 290.571 54.288 284.019 54.288C280.483 54.288 277.779 55.484 275.907 57.876C274.139 60.164 272.943 62.816 272.319 65.832C271.903 67.808 271.279 69.368 270.447 70.512C269.719 71.656 268.367 72.228 266.391 72.228C264.727 72.228 263.427 71.76 262.491 70.824C261.659 69.888 261.243 68.796 261.243 67.548C261.243 65.052 262.855 62.556 266.079 60.06C269.303 57.564 273.151 55.484 277.623 53.82C282.095 52.156 286.099 51.324 289.635 51.324C293.899 51.324 297.123 52.676 299.307 55.38C301.491 58.084 302.583 61.984 302.583 67.08V96.252C302.583 99.892 303.051 102.544 303.987 104.208C304.923 105.872 306.431 106.704 308.511 106.704C310.591 106.704 313.191 106.028 316.311 104.676H316.623C317.039 104.676 317.299 104.936 317.403 105.456C317.507 105.872 317.351 106.184 316.935 106.392L300.867 114.036ZM272.787 114.192C268.939 114.192 265.923 113.204 263.739 111.228C261.659 109.148 260.619 106.548 260.619 103.428C260.619 100.308 261.867 97.604 264.363 95.316C266.859 93.028 270.967 90.844 276.687 88.764L295.407 81.744L295.875 83.772L279.339 90.168C276.427 91.312 274.295 92.664 272.943 94.224C271.695 95.68 271.071 97.448 271.071 99.528C271.071 102.024 271.851 104.156 273.411 105.924C275.075 107.588 277.207 108.42 279.807 108.42C281.887 108.42 284.383 107.588 287.295 105.924L297.123 99.996L297.435 102.024L285.891 109.512C283.291 111.176 281.003 112.372 279.027 113.1C277.051 113.828 274.971 114.192 272.787 114.192Z" fill="white"/>
<path d="M339.422 69.108C344.934 62.244 349.198 57.616 352.214 55.224C355.23 52.728 358.038 51.48 360.638 51.48C362.926 51.48 365.11 52.104 367.19 53.352C369.27 54.6 370.31 56.108 370.31 57.876C370.31 59.228 369.842 60.372 368.906 61.308C367.97 62.244 366.722 62.712 365.162 62.712C364.226 62.712 363.394 62.556 362.666 62.244C362.042 61.828 361.262 61.256 360.326 60.528C359.39 59.696 358.506 59.072 357.674 58.656C356.842 58.24 355.854 58.032 354.71 58.032C353.15 58.032 351.434 58.812 349.562 60.372C347.69 61.932 344.518 65.416 340.046 70.824L339.422 69.108ZM324.758 113.1C324.446 113.1 324.29 112.788 324.29 112.164C324.29 111.54 324.446 111.228 324.758 111.228C327.566 111.228 329.646 110.968 330.998 110.448C332.35 109.824 333.234 108.784 333.65 107.328C334.17 105.872 334.43 103.584 334.43 100.464V69.576C334.43 66.04 334.014 63.492 333.182 61.932C332.35 60.372 330.946 59.592 328.97 59.592C327.306 59.592 324.498 60.372 320.546 61.932H320.234C319.818 61.932 319.506 61.724 319.298 61.308C319.194 60.788 319.35 60.424 319.766 60.216L337.862 51.636C338.07 51.532 338.382 51.48 338.798 51.48C339.734 51.48 340.722 52.676 341.762 55.068C342.802 57.46 343.322 60.528 343.322 64.272V100.464C343.322 103.584 343.686 105.872 344.414 107.328C345.246 108.784 346.702 109.824 348.782 110.448C350.862 110.968 354.086 111.228 358.454 111.228C358.87 111.228 359.078 111.54 359.078 112.164C359.078 112.788 358.87 113.1 358.454 113.1C355.126 113.1 352.474 113.048 350.498 112.944L338.954 112.788L330.374 112.944C329.022 113.048 327.15 113.1 324.758 113.1Z" fill="white"/>
<path d="M421.609 114.036C421.193 114.244 420.777 114.348 420.361 114.348C418.801 114.348 417.449 113.152 416.305 110.76C415.161 108.368 414.589 105.196 414.589 101.244V71.76C414.589 60.112 411.313 54.288 404.761 54.288C401.225 54.288 398.521 55.484 396.649 57.876C394.881 60.164 393.685 62.816 393.061 65.832C392.645 67.808 392.021 69.368 391.189 70.512C390.461 71.656 389.109 72.228 387.133 72.228C385.469 72.228 384.169 71.76 383.233 70.824C382.401 69.888 381.985 68.796 381.985 67.548C381.985 65.052 383.597 62.556 386.821 60.06C390.045 57.564 393.893 55.484 398.365 53.82C402.837 52.156 406.841 51.324 410.377 51.324C414.641 51.324 417.865 52.676 420.049 55.38C422.233 58.084 423.325 61.984 423.325 67.08V96.252C423.325 99.892 423.793 102.544 424.729 104.208C425.665 105.872 427.173 106.704 429.253 106.704C431.333 106.704 433.933 106.028 437.053 104.676H437.365C437.781 104.676 438.041 104.936 438.145 105.456C438.249 105.872 438.093 106.184 437.677 106.392L421.609 114.036ZM393.529 114.192C389.681 114.192 386.665 113.204 384.481 111.228C382.401 109.148 381.361 106.548 381.361 103.428C381.361 100.308 382.609 97.604 385.105 95.316C387.601 93.028 391.709 90.844 397.429 88.764L416.149 81.744L416.617 83.772L400.081 90.168C397.169 91.312 395.037 92.664 393.685 94.224C392.437 95.68 391.813 97.448 391.813 99.528C391.813 102.024 392.593 104.156 394.153 105.924C395.817 107.588 397.949 108.42 400.549 108.42C402.629 108.42 405.125 107.588 408.037 105.924L417.865 99.996L418.177 102.024L406.633 109.512C404.033 111.176 401.745 112.372 399.769 113.1C397.793 113.828 395.713 114.192 393.529 114.192Z" fill="white"/>
<path d="M525.841 113.1C525.529 113.1 525.372 112.788 525.372 112.164C525.372 111.54 525.529 111.228 525.841 111.228C528.649 111.228 530.729 110.968 532.081 110.448C533.433 109.824 534.368 108.784 534.888 107.328C535.408 105.768 535.669 103.48 535.669 100.464V75.66C535.669 69.524 534.577 64.948 532.393 61.932C530.209 58.916 526.829 57.408 522.253 57.408C518.613 57.408 514.869 58.656 511.021 61.152C507.277 63.544 504.053 66.82 501.349 70.98L500.724 69.108C505.092 62.972 509.408 58.5 513.672 55.692C518.04 52.78 522.617 51.324 527.401 51.324C532.913 51.324 537.124 52.884 540.036 56.004C542.948 59.124 544.404 63.856 544.404 70.2V100.464C544.404 103.584 544.665 105.872 545.185 107.328C545.705 108.784 546.64 109.824 547.992 110.448C549.344 110.968 551.424 111.228 554.232 111.228C554.544 111.228 554.701 111.54 554.701 112.164C554.701 112.788 554.544 113.1 554.232 113.1C551.84 113.1 549.917 113.048 548.461 112.944L540.036 112.788L531.612 112.944C530.156 113.048 528.233 113.1 525.841 113.1ZM485.592 113.1C485.28 113.1 485.125 112.788 485.125 112.164C485.125 111.54 485.28 111.228 485.592 111.228C488.4 111.228 490.48 110.968 491.832 110.448C493.184 109.824 494.068 108.784 494.484 107.328C495.004 105.872 495.264 103.584 495.264 100.464V75.66C495.264 69.524 494.172 64.948 491.988 61.932C489.804 58.916 486.477 57.408 482.005 57.408C478.261 57.408 474.516 58.656 470.772 61.152C467.028 63.544 463.804 66.82 461.1 70.98L460.477 69.108C464.845 62.972 469.161 58.5 473.424 55.692C477.792 52.78 482.316 51.324 486.996 51.324C492.508 51.324 496.721 52.884 499.633 56.004C502.649 59.124 504.156 63.752 504.156 69.888V100.464C504.156 103.584 504.416 105.872 504.936 107.328C505.456 108.784 506.393 109.824 507.745 110.448C509.097 110.968 511.176 111.228 513.984 111.228C514.296 111.228 514.453 111.54 514.453 112.164C514.453 112.788 514.296 113.1 513.984 113.1C511.592 113.1 509.668 113.048 508.212 112.944L499.789 112.788L491.208 112.944C489.856 113.048 487.984 113.1 485.592 113.1ZM445.5 113.1C445.188 113.1 445.033 112.788 445.033 112.164C445.033 111.54 445.188 111.228 445.5 111.228C448.308 111.228 450.389 110.968 451.741 110.448C453.093 109.824 453.976 108.784 454.392 107.328C454.912 105.872 455.173 103.584 455.173 100.464V69.576C455.173 66.04 454.756 63.492 453.924 61.932C453.092 60.372 451.688 59.592 449.712 59.592C448.048 59.592 445.241 60.372 441.289 61.932H440.977C440.561 61.932 440.248 61.724 440.04 61.308C439.936 60.788 440.093 60.424 440.509 60.216L458.604 51.636C458.812 51.532 459.124 51.48 459.54 51.48C460.476 51.48 461.465 52.676 462.505 55.068C463.545 57.46 464.065 60.528 464.065 64.272V100.464C464.065 103.584 464.273 105.872 464.689 107.328C465.209 108.784 466.144 109.824 467.496 110.448C468.848 110.968 470.929 111.228 473.737 111.228C474.049 111.228 474.204 111.54 474.204 112.164C474.204 112.788 474.049 113.1 473.737 113.1C471.345 113.1 469.473 113.048 468.121 112.944L459.697 112.788L451.116 112.944C449.764 113.048 447.892 113.1 445.5 113.1Z" fill="white"/>
<path d="M597.429 115.128C588.589 115.128 580.789 112.268 574.029 106.548L581.361 92.664C581.361 97.136 582.453 100.828 584.637 103.74C586.925 106.652 589.681 108.784 592.905 110.136C596.129 111.488 599.249 112.164 602.265 112.164C608.297 112.164 612.977 109.824 616.305 105.144C619.737 100.464 621.453 93.756 621.453 85.02C621.453 75.66 619.633 68.484 615.993 63.492C612.353 58.5 607.517 56.004 601.485 56.004C597.533 56.004 593.789 57.148 590.253 59.436C586.821 61.724 583.233 64.896 579.489 68.952L578.241 67.86C582.713 62.764 587.081 58.656 591.345 55.536C595.713 52.416 600.809 50.856 606.633 50.856C611.105 50.856 615.265 51.948 619.113 54.132C622.961 56.316 626.029 59.592 628.317 63.96C630.605 68.224 631.749 73.476 631.749 79.716C631.749 87.204 630.085 93.652 626.757 99.06C623.533 104.364 619.269 108.368 613.965 111.072C608.765 113.776 603.253 115.128 597.429 115.128ZM564.045 113.88C563.629 113.88 563.369 113.672 563.265 113.256C563.161 112.84 563.265 112.528 563.577 112.32C566.905 110.032 569.245 107.9 570.597 105.924C571.949 103.844 572.625 100.88 572.625 97.032V19.968C572.625 16.224 572.209 13.52 571.377 11.856C570.649 10.192 569.349 9.36 567.477 9.36C566.021 9.36 563.681 10.036 560.457 11.388H560.145C559.833 11.388 559.573 11.128 559.365 10.608C559.261 10.088 559.365 9.77599 559.677 9.672L579.177 0.155998L579.957 0C580.269 0 580.581 0.155998 580.893 0.467994C581.205 0.675997 581.361 0.936 581.361 1.248V105.924L564.357 113.88H564.045Z" fill="white"/>
<path d="M642.04 113.1C641.728 113.1 641.572 112.788 641.572 112.164C641.572 111.54 641.728 111.228 642.04 111.228C644.848 111.228 646.928 110.968 648.28 110.448C649.632 109.824 650.568 108.784 651.088 107.328C651.608 105.768 651.868 103.48 651.868 100.464V19.812C651.868 16.068 651.504 13.364 650.776 11.7C650.048 10.036 648.748 9.204 646.876 9.204C645.316 9.204 642.924 9.932 639.7 11.388L639.388 11.544C639.076 11.544 638.816 11.284 638.608 10.764C638.4 10.244 638.504 9.88 638.92 9.672L658.732 0H659.2C659.616 0 659.928 0.155998 660.136 0.467994C660.448 0.675997 660.604 0.936 660.604 1.248V100.464C660.604 103.584 660.864 105.872 661.384 107.328C661.904 108.784 662.84 109.824 664.192 110.448C665.544 110.968 667.624 111.228 670.432 111.228C670.744 111.228 670.9 111.54 670.9 112.164C670.9 112.788 670.744 113.1 670.432 113.1C668.04 113.1 666.116 113.048 664.66 112.944L656.236 112.788L647.812 112.944C646.356 113.048 644.432 113.1 642.04 113.1ZM684.004 113.1C683.692 113.1 683.536 112.788 683.536 112.164C683.536 111.54 683.692 111.228 684.004 111.228C686.812 111.228 688.892 110.968 690.244 110.448C691.596 109.824 692.532 108.784 693.052 107.328C693.572 105.768 693.832 103.48 693.832 100.464V75.66C693.832 69.524 692.636 64.948 690.244 61.932C687.956 58.916 684.368 57.408 679.48 57.408C675.632 57.408 671.732 58.656 667.78 61.152C663.828 63.544 660.448 66.82 657.64 70.98L657.016 69.108C661.696 62.972 666.22 58.5 670.588 55.692C675.06 52.78 679.74 51.324 684.628 51.324C690.348 51.324 694.768 52.936 697.888 56.16C701.008 59.384 702.568 64.064 702.568 70.2V100.464C702.568 103.584 702.828 105.872 703.348 107.328C703.868 108.784 704.804 109.824 706.156 110.448C707.508 110.968 709.588 111.228 712.396 111.228C712.708 111.228 712.864 111.54 712.864 112.164C712.864 112.788 712.708 113.1 712.396 113.1C710.004 113.1 708.08 113.048 706.624 112.944L698.2 112.788L689.776 112.944C688.32 113.048 686.396 113.1 684.004 113.1Z" fill="white"/>
</svg>
